<svg width="30" height="31" viewBox="0 0 30 31" fill="none" xmlns="http://www.w3.org/2000/svg">
<path d="M17.6911 30.2583C17.3882 30.2559 17.1064 30.136 16.8975 29.9178L11.5624 24.4154C9.79892 22.5957 9.81536 19.6515 11.5953 17.8509C12.45 16.9878 13.5865 16.5107 14.7935 16.5107C15.8924 16.5107 16.928 16.9039 17.7498 17.6232C18.5717 16.9015 19.6096 16.5083 20.7062 16.5083H20.7297C21.9437 16.5155 23.0826 17.0022 23.9373 17.8845C24.7897 18.7644 25.257 19.932 25.2499 21.1739C25.2429 22.4159 24.7662 23.5787 23.9044 24.449L18.4825 29.9274C18.2711 30.1408 17.9917 30.2583 17.6935 30.2583H17.6911ZM14.7935 18.8028C14.183 18.8028 13.6077 19.0425 13.1733 19.4813C12.2716 20.3923 12.2645 21.8836 13.1568 22.8043L17.7029 27.4939L22.3264 22.8211C22.7632 22.3799 23.0051 21.7925 23.0074 21.162C23.0098 20.5338 22.7749 19.9416 22.3429 19.4957C21.9108 19.0497 21.3332 18.8028 20.7179 18.798C20.0957 18.798 19.5204 19.0401 19.086 19.4789L18.5318 20.0375C18.3205 20.2509 18.041 20.3684 17.7428 20.3684C17.4399 20.3684 17.1581 20.2485 16.9444 20.0279L16.4278 19.4933C15.9958 19.0497 15.4134 18.8028 14.7935 18.8028Z" fill="#00ABFF"/>
<path fill-rule="evenodd" clip-rule="evenodd" d="M9.85287 12.5594C10.6387 12.904 11.5064 13.0953 12.4181 13.0953C13.1507 13.0953 13.8551 12.9716 14.5115 12.7439L18.7959 14.4187C19.1047 14.5394 19.4038 14.6915 19.6812 14.8726L19.8597 14.9886L20.0648 14.9354C21.0692 14.4676 22.8819 14.7222 22.887 14.7253L22.243 14.0371C21.5097 13.2547 20.6316 12.6607 19.6354 12.2695L16.9449 11.2178C18.1086 10.0554 18.8298 8.44898 18.8298 6.67679C18.8298 3.13672 15.9544 0.258301 12.4181 0.258301C8.88178 0.258301 6.00642 3.13672 6.00642 6.67679C6.00642 8.31595 6.62288 9.81325 7.63599 10.9486L4.74482 12.0788C2.24094 13.0592 0.518619 15.3315 0.255688 18.0119C0.19297 18.6445 0.656115 19.2096 1.29053 19.2724C1.32671 19.2748 1.36531 19.2772 1.40149 19.2772C1.99731 19.2772 2.4894 18.8305 2.54729 18.2413C2.7258 16.4302 3.88848 14.892 5.58186 14.2303L9.85287 12.5594ZM8.31249 6.67438C8.31249 4.40931 10.153 2.56442 12.4181 2.56442C14.6807 2.56442 16.5237 4.40931 16.5237 6.67438C16.5237 8.93944 14.6832 10.7843 12.4181 10.7843C10.1554 10.7843 8.31249 8.93944 8.31249 6.67438ZM24.1634 16.0652C24.2387 16.1117 24.3176 16.144 24.4018 16.1653C24.7807 16.2609 25.1837 16.0937 25.3829 15.7579L26.189 14.4073C26.44 13.985 26.3021 13.4372 25.8803 13.1863C25.8049 13.1398 25.726 13.1075 25.6418 13.0862C25.2653 12.9912 24.86 13.1578 24.6608 13.4936L23.8546 14.8442C23.6037 15.2665 23.7416 15.8143 24.1634 16.0652ZM25.7732 17.8091C25.8492 17.8532 25.9281 17.8856 26.0123 17.9068C26.2578 17.9688 26.5183 17.9225 26.7305 17.7818L28.0685 16.8768C28.2643 16.7419 28.4 16.5395 28.4439 16.3065C28.4878 16.0736 28.4404 15.8374 28.3063 15.6392C28.1833 15.4563 27.9993 15.3276 27.7865 15.2739C27.5409 15.2119 27.2805 15.2582 27.0706 15.3995L25.7326 16.3045C25.5368 16.4394 25.4011 16.6418 25.3573 16.8748C25.311 17.1072 25.3602 17.3462 25.4925 17.5415C25.5642 17.6517 25.6587 17.7404 25.7732 17.8091ZM26.7242 20.0339C26.8001 20.0779 26.879 20.1103 26.9632 20.1316C27.0544 20.1546 27.1521 20.1618 27.2504 20.1567L28.8164 20.034C29.3063 19.9958 29.673 19.5679 29.6351 19.0776C29.6044 18.6963 29.3367 18.3772 28.9648 18.2833C28.8713 18.2597 28.7742 18.2501 28.6776 18.2581L27.1116 18.3808C26.6224 18.4167 26.255 18.847 26.293 19.3372C26.3145 19.6266 26.4753 19.8864 26.7242 20.0339Z" fill="#00ABFF"/>
</svg>
