<svg width="30" height="34" viewBox="0 0 30 34" fill="none" xmlns="http://www.w3.org/2000/svg">
<path fill-rule="evenodd" clip-rule="evenodd" d="M13.0514 32.1477C10.3986 32.4415 7.83188 32.1431 5.42682 31.2601C5.12879 31.1521 4.89554 30.9305 4.76433 30.6417C4.63577 30.3526 4.63066 30.0206 4.74758 29.7283C4.90875 29.3299 5.27586 29.0525 5.70611 29.0048C5.88824 28.9846 6.07508 29.0065 6.24785 29.0699C8.30443 29.8239 10.5054 30.0777 12.7913 29.8245C14.119 29.6774 15.4994 29.3569 16.8904 28.8676C20.0583 27.7564 22.3818 26.1092 23.1487 25.5655L23.1505 25.5642L23.219 25.5164L23.2191 25.5163C23.3084 25.4539 23.3636 25.4153 23.4059 25.3869C23.8915 25.0697 24.7431 24.704 25.9352 24.3006C26.5713 24.0865 26.9312 23.4107 26.7345 22.7992L26.7344 22.7991L26.7264 22.7765C26.7174 22.7509 26.7084 22.7257 26.6995 22.702L26.681 22.6562L21.8595 8.83044L20.6336 5.78138C20.5006 5.45288 20.2339 5.19506 19.8975 5.078L15.5608 3.55481C15.5192 3.5408 15.4784 3.53467 15.4335 3.53964C15.3411 3.54987 15.2587 3.60157 15.2116 3.68129L13.753 6.97978L15.9024 8.03748L16.3489 7.61021L16.1522 7.07059C15.9876 6.76955 15.9637 6.413 16.0853 6.09089C16.2072 5.77141 16.4675 5.51908 16.7942 5.40574C16.8766 5.37798 16.9599 5.35812 17.0444 5.34876C17.5169 5.29643 17.9909 5.54459 18.2228 5.96856L18.6276 6.8869C18.8387 7.27093 18.8909 7.70803 18.7973 8.11362L19.1022 7.73621C19.2863 7.56681 19.518 7.464 19.7661 7.43652C20.1383 7.3953 20.5094 7.53513 20.7617 7.80784C20.9744 8.03704 21.0828 8.33634 21.0697 8.64909C21.0566 8.96184 20.9206 9.25096 20.6901 9.46007L20.4177 9.79729C21.2955 11.5948 20.9285 13.2644 20.5715 14.8889L20.5711 14.8904C20.2218 16.4723 19.8947 17.9666 20.5328 19.8701C20.5463 19.9105 20.5577 19.9513 20.5667 19.9922C20.84 20.0879 21.077 20.1765 21.2757 20.2508L21.337 20.2733L21.3499 20.2781C21.4756 20.3255 21.5854 20.3667 21.6685 20.3936C22.2681 20.5932 22.5941 21.2382 22.3964 21.8349C22.2625 22.2381 21.9183 22.529 21.4986 22.5995L21.4695 22.6027C21.4751 22.6047 21.4566 22.6068 21.4382 22.6088C21.2745 22.6269 21.1041 22.6086 20.9486 22.5566C20.8292 22.5166 20.6817 22.4638 20.4975 22.3937C19.2646 21.9316 16.3808 20.8541 12.4505 21.2894C9.92968 21.5686 7.37478 22.4263 4.86056 23.8382C4.72479 23.9144 4.57787 23.9626 4.42477 23.9796C4.2796 23.9957 4.13382 23.9825 3.99068 23.9452C3.69559 23.8635 3.45238 23.6722 3.29977 23.4071C2.98985 22.8587 3.18464 22.164 3.73505 21.8529C6.53108 20.2848 9.38246 19.3304 12.2094 19.0173C14.4664 18.7673 16.4122 18.9559 17.9619 19.2697C17.6211 17.3743 17.9658 15.8031 18.278 14.3861L18.2783 14.3848L18.2783 14.3848C18.6246 12.8114 18.8499 11.7881 18.2269 10.6623C17.8627 10.6311 17.5047 10.5273 17.1829 10.3567L16.9447 10.2261C16.7213 10.3653 16.4662 10.4548 16.203 10.4839C15.8704 10.5208 15.5352 10.4621 15.2354 10.3144L12.6336 9.03541C11.545 8.50145 11.0776 7.21489 11.5659 6.10985L13.0778 2.69104C13.1033 2.63235 13.1343 2.57569 13.1686 2.524C13.6265 1.8161 14.3769 1.35784 15.2268 1.2637C15.6676 1.21488 16.1035 1.26505 16.5291 1.4148L20.6739 2.87145C21.6475 3.21327 22.4282 3.95694 22.8105 4.91236L24.0601 8.03063L28.8808 21.8485C28.9104 21.9223 28.9412 22.0067 28.9665 22.0891C29.5496 23.9082 28.5241 25.895 26.6857 26.5163C25.7381 26.8368 24.9897 27.1458 24.6886 27.3441C24.6638 27.3601 24.6267 27.3869 24.5789 27.4213L24.5788 27.4214L24.5787 27.4214L24.5153 27.4671L24.5034 27.4755C23.6547 28.0768 21.1348 29.8622 17.6666 31.0752C16.4581 31.499 15.2454 31.8143 14.0673 32.0086C13.7263 32.065 13.384 32.1109 13.0514 32.1477Z" fill="#00C09E"/>
</svg>
