<svg width="30" height="30" viewBox="0 0 30 30" fill="none" xmlns="http://www.w3.org/2000/svg">
<path fill-rule="evenodd" clip-rule="evenodd" d="M15.9247 17.2832C16.8677 17.7186 18.726 18.0097 20.549 18.0097C22.186 18.0097 24.497 17.7841 26.2195 16.7089C26.5338 16.5122 26.7425 16.1817 26.7903 15.7988C26.8355 15.4159 26.7148 15.0409 26.4558 14.7655C25.9554 14.2384 25.3268 13.4306 24.5825 12.3659L24.6156 12.3327C24.8512 12.097 25.0893 11.8588 25.3343 11.6158L25.3599 11.5903C26.5062 10.4495 27.6926 9.26883 28.983 7.89173C29.3778 7.47212 29.4381 6.83483 29.1314 6.34179C28.9101 5.98774 28.5354 5.77531 28.128 5.77531C27.9872 5.77531 27.8464 5.80153 27.7131 5.85399C26.7978 6.20803 25.8523 6.38112 24.8188 6.38112C22.4853 6.38112 20.0914 5.49469 17.534 4.54531C16.7344 4.24896 15.9121 3.94474 15.0848 3.66937C15.0044 3.26025 14.9817 3.14748 14.9717 3.10027C14.6375 1.60378 12.9522 1.25444 12.1419 1.08646L12.1402 1.08612L12.0698 1.07039C11.0564 0.860582 10.1286 0.758301 9.23588 0.758301C7.92829 0.758301 6.71877 0.981221 5.53188 1.44017C4.97867 1.6526 4.66183 2.24793 4.7775 2.85112L7.30216 16.048C7.3776 16.444 7.63408 16.7797 7.98864 16.9423C8.14455 17.0131 8.30548 17.0498 8.47396 17.0498C8.69021 17.0498 8.90144 16.9895 9.08752 16.8741C10.3524 16.0873 11.6776 15.7359 13.3824 15.7359C13.6113 15.7359 13.8552 15.7438 14.1016 15.7569C14.3355 15.77 14.5844 15.7883 14.851 15.8146L14.9113 16.1267C15.0069 16.6276 15.3489 17.0183 15.9247 17.2832ZM20.5692 15.5261C19.0302 15.5261 17.7428 15.3032 17.1518 15.1143L17.016 14.4298C16.9129 13.9001 16.498 13.4988 15.9825 13.4359C15.291 13.3493 14.7303 13.2969 14.2198 13.2707C13.8954 13.2523 13.6012 13.2444 13.3171 13.2444C11.8561 13.2444 10.5485 13.4857 9.33646 13.9814L7.3273 3.47268C7.93835 3.32581 8.567 3.25238 9.2384 3.25238C9.97517 3.25238 10.7472 3.33893 11.6021 3.51726L11.675 3.533C12.2811 3.65626 12.5577 3.76378 12.6733 3.81886C12.706 3.97621 12.7664 4.28306 12.882 4.88887C12.9675 5.34258 13.2869 5.70712 13.7119 5.83825C14.7177 6.15034 15.7537 6.53324 16.7621 6.90827L16.7678 6.91038C19.3133 7.85385 21.9416 8.82803 24.6353 8.87258C24.3159 9.19254 23.9991 9.50725 23.6847 9.81933L23.6395 9.86392C23.1366 10.3622 22.6512 10.8448 22.181 11.3221C21.7611 11.7496 21.6982 12.4262 22.0352 12.9297C22.6236 13.8057 23.1441 14.54 23.6168 15.1563C22.5607 15.4553 21.4116 15.5261 20.5692 15.5261ZM5.39244 28.4591C5.51688 29.0775 5.97802 29.5107 6.51479 29.5107C6.60995 29.5107 6.70754 29.495 6.80026 29.4637C7.40291 29.281 7.75914 28.5713 7.61518 27.8485L2.6744 3.24755C2.54996 2.62914 2.08883 2.19598 1.55205 2.19598C1.45689 2.19598 1.3593 2.21164 1.26658 2.24034C0.666368 2.423 0.307703 3.13274 0.451657 3.85553L5.39244 28.4591Z" fill="#BF6BE6"/>
</svg>
